<svg width="98" height="98" viewBox="0 0 98 98" fill="none" xmlns="http://www.w3.org/2000/svg">
<path d="M67.375 6.125C68.9995 6.125 70.5574 6.77031 71.706 7.91897C72.8547 9.06763 73.5 10.6255 73.5 12.25V85.75C73.5 87.3745 72.8547 88.9324 71.706 90.081C70.5574 91.2297 68.9995 91.875 67.375 91.875H30.625C29.0005 91.875 27.4426 91.2297 26.294 90.081C25.1453 88.9324 24.5 87.3745 24.5 85.75V12.25C24.5 10.6255 25.1453 9.06763 26.294 7.91897C27.4426 6.77031 29.0005 6.125 30.625 6.125H67.375ZM30.625 0C27.3761 0 24.2603 1.29062 21.9629 3.58794C19.6656 5.88526 18.375 9.0011 18.375 12.25V85.75C18.375 88.9989 19.6656 92.1147 21.9629 94.4121C24.2603 96.7094 27.3761 98 30.625 98H67.375C70.6239 98 73.7397 96.7094 76.0371 94.4121C78.3344 92.1147 79.625 88.9989 79.625 85.75V12.25C79.625 9.0011 78.3344 5.88526 76.0371 3.58794C73.7397 1.29062 70.6239 0 67.375 0L30.625 0Z" fill="#E22C2C"/>
<path d="M49 85.75C50.6245 85.75 52.1824 85.1047 53.331 83.956C54.4797 82.8074 55.125 81.2495 55.125 79.625C55.125 78.0005 54.4797 76.4426 53.331 75.294C52.1824 74.1453 50.6245 73.5 49 73.5C47.3755 73.5 45.8176 74.1453 44.669 75.294C43.5203 76.4426 42.875 78.0005 42.875 79.625C42.875 81.2495 43.5203 82.8074 44.669 83.956C45.8176 85.1047 47.3755 85.75 49 85.75Z" fill="#E22C2C"/>
</svg>
