<svg width="87" height="87" viewBox="0 0 87 87" fill="none" xmlns="http://www.w3.org/2000/svg">
<path fill-rule="evenodd" clip-rule="evenodd" d="M16.8563 60.9C17.1095 60.5623 17.4379 60.2883 17.8154 60.0995C18.1929 59.9108 18.6092 59.8125 19.0313 59.8125H32.625C33.3461 59.8125 34.0376 60.0989 34.5474 60.6088C35.0573 61.1187 35.3438 61.8102 35.3438 62.5312C35.3438 63.2523 35.0573 63.9438 34.5474 64.4537C34.0376 64.9636 33.3461 65.25 32.625 65.25H20.3906L8.15625 81.5625H78.8438L66.6094 65.25H54.375C53.6539 65.25 52.9624 64.9636 52.4526 64.4537C51.9427 63.9438 51.6562 63.2523 51.6562 62.5312C51.6562 61.8102 51.9427 61.1187 52.4526 60.6088C52.9624 60.0989 53.6539 59.8125 54.375 59.8125H67.9688C68.3908 59.8125 68.8071 59.9108 69.1846 60.0995C69.5621 60.2883 69.8905 60.5623 70.1437 60.9L86.4562 82.65C86.7592 83.0539 86.9437 83.5342 86.989 84.0371C87.0344 84.54 86.9388 85.0455 86.713 85.4971C86.4872 85.9487 86.1401 86.3285 85.7106 86.594C85.2811 86.8594 84.7862 87 84.2812 87H2.71875C2.21385 87 1.71892 86.8594 1.28942 86.594C0.859923 86.3285 0.512827 85.9487 0.287027 85.4971C0.0612273 85.0455 -0.0343563 84.54 0.0109869 84.0371C0.0563301 83.5342 0.240809 83.0539 0.543751 82.65L16.8563 60.9Z" fill="#E22C2C"/>
<path fill-rule="evenodd" clip-rule="evenodd" d="M43.5 5.43744C41.3578 5.43744 39.2366 5.85937 37.2575 6.67915C35.2784 7.49893 33.4801 8.7005 31.9653 10.2153C30.4506 11.73 29.249 13.5283 28.4292 15.5074C27.6094 17.4865 27.1875 19.6077 27.1875 21.7499C27.1875 23.8921 27.6094 26.0133 28.4292 27.9925C29.249 29.9716 30.4506 31.7699 31.9653 33.2846C33.4801 34.7994 35.2784 36.0009 37.2575 36.8207C39.2366 37.6405 41.3578 38.0624 43.5 38.0624C47.8263 38.0624 51.9755 36.3438 55.0347 33.2846C58.0939 30.2254 59.8125 26.0763 59.8125 21.7499C59.8125 17.4236 58.0939 13.2744 55.0347 10.2153C51.9755 7.15607 47.8263 5.43744 43.5 5.43744V5.43744ZM21.75 21.7499C21.7504 17.5643 22.9585 13.4677 25.2294 9.9516C27.5003 6.43555 30.7375 3.64943 34.5526 1.92757C38.3677 0.205701 42.5986 -0.378772 46.7376 0.244281C50.8766 0.867334 54.7479 2.67145 57.887 5.44014C61.0261 8.20883 63.2997 11.8245 64.4349 15.8533C65.57 19.882 65.5186 24.1528 64.2867 28.1531C63.0549 32.1533 60.6949 35.7132 57.4901 38.4055C54.2852 41.0978 50.3716 42.8082 46.2188 43.3314V73.4062C46.2188 74.1272 45.9323 74.8188 45.4225 75.3286C44.9126 75.8385 44.2211 76.1249 43.5 76.1249C42.7789 76.1249 42.0874 75.8385 41.5776 75.3286C41.0677 74.8188 40.7813 74.1272 40.7813 73.4062V43.3368C35.523 42.6743 30.6876 40.1147 27.1832 36.1388C23.6789 32.1629 21.7469 27.0443 21.75 21.7445V21.7499Z" fill="#E22C2C"/>
</svg>
