<svg width="188" height="188" viewBox="0 0 188 188" fill="none" xmlns="http://www.w3.org/2000/svg">
<g clip-path="url(#clip0_17_85)">
<path d="M92.8908 85.4742C88.0874 124.155 63.5534 131.036 63.5534 157.929C63.5534 174.53 77.4936 188 94 188C110.506 188 124.437 174.52 124.437 157.929C124.437 131.036 99.9032 124.155 95.0998 85.4742C94.9494 84.318 93.0412 84.318 92.8908 85.4742V85.4742ZM36.5002 0.8742C31.6968 39.5552 7.16278 46.4266 7.16278 73.3294C7.16278 89.9204 21.0936 103.4 37.6 103.4C54.1064 103.4 68.0372 89.9204 68.0372 73.3294C68.0372 46.436 43.5032 39.5552 38.6998 0.8742C38.5588 -0.282 36.6412 -0.282 36.5002 0.8742V0.8742ZM149.3 0.8742C144.497 39.5552 119.963 46.436 119.963 73.3294C119.963 89.9204 133.894 103.4 150.4 103.4C166.906 103.4 180.837 89.9204 180.837 73.3294C180.837 46.436 156.303 39.5552 151.5 0.8742C151.349 -0.282 149.441 -0.282 149.3 0.8742V0.8742Z" fill="#24C2F4" fill-opacity="0.5"/>
</g>
<defs>
<clipPath id="clip0_17_85">
<rect width="188" height="188" fill="white"/>
</clipPath>
</defs>
</svg>
