<svg width="91" height="91" viewBox="0 0 91 91" fill="none" xmlns="http://www.w3.org/2000/svg">
<path d="M11.375 34.3411V62.5625C11.375 65.5793 12.5734 68.4726 14.7067 70.6058C16.8399 72.7391 19.7332 73.9375 22.75 73.9375H68.25C71.2668 73.9375 74.1601 72.7391 76.2933 70.6058C78.4266 68.4726 79.625 65.5793 79.625 62.5625V28.4375C79.625 25.4207 78.4266 22.5274 76.2933 20.3942C74.1601 18.2609 71.2668 17.0625 68.25 17.0625H22.75C19.7332 17.0625 16.8399 18.2609 14.7067 20.3942C12.5734 22.5274 11.375 25.4207 11.375 28.4375V34.3411ZM22.75 22.75H68.25C69.7584 22.75 71.2051 23.3492 72.2717 24.4158C73.3383 25.4824 73.9375 26.9291 73.9375 28.4375V32.6462L45.5 47.957L17.0625 32.6462V28.4375C17.0625 26.9291 17.6617 25.4824 18.7283 24.4158C19.7949 23.3492 21.2416 22.75 22.75 22.75V22.75ZM17.0625 39.1072L44.1521 53.69C44.5664 53.913 45.0295 54.0298 45.5 54.0298C45.9705 54.0298 46.4337 53.913 46.8479 53.69L73.9375 39.1072V62.5625C73.9375 64.0709 73.3383 65.5176 72.2717 66.5842C71.2051 67.6508 69.7584 68.25 68.25 68.25H22.75C21.2416 68.25 19.7949 67.6508 18.7283 66.5842C17.6617 65.5176 17.0625 64.0709 17.0625 62.5625V39.1072Z" fill="#E22C2C"/>
</svg>
