<svg width="207" height="207" viewBox="0 0 207 207" fill="none" xmlns="http://www.w3.org/2000/svg">
<path d="M25.875 181.125V144.469L64.6875 105.656L31.2656 72.0188C29.5406 70.2938 28.2842 68.3531 27.4965 66.1969C26.703 64.0406 26.3062 61.8844 26.3062 59.7281C26.3062 57.5719 26.703 55.453 27.4965 53.3715C28.2842 51.2843 29.5406 49.3781 31.2656 47.6531L47.6531 31.2656C49.3781 29.5406 51.3187 28.2814 53.475 27.4879C55.6312 26.7001 57.7875 26.3063 59.9437 26.3063C62.1 26.3063 64.2218 26.7001 66.309 27.4879C68.3905 28.2814 70.2938 29.5406 72.0188 31.2656L105.656 64.9031L144.253 26.0906C145.116 25.2281 146.05 24.5813 147.056 24.15C148.062 23.7188 149.141 23.5031 150.291 23.5031C151.441 23.5031 152.553 23.7188 153.629 24.15C154.71 24.5813 155.681 25.2281 156.544 26.0906L180.909 50.4563C181.772 51.3188 182.419 52.2531 182.85 53.2594C183.281 54.2656 183.497 55.3438 183.497 56.4938C183.497 57.6438 183.281 58.7593 182.85 59.8403C182.419 60.9155 181.772 61.8844 180.909 62.7469L142.312 101.344L175.734 134.981C177.459 136.706 178.716 138.647 179.504 140.803C180.297 142.959 180.694 145.116 180.694 147.272C180.694 149.428 180.297 151.547 179.504 153.629C178.716 155.716 177.459 157.622 175.734 159.347L159.347 175.734C157.622 177.459 155.716 178.716 153.629 179.504C151.547 180.297 149.428 180.694 147.272 180.694C145.116 180.694 142.959 180.297 140.803 179.504C138.647 178.716 136.706 177.459 134.981 175.734L101.344 142.097L62.5312 181.125H25.875ZM76.9781 93.3656L93.3656 76.9781L83.0156 66.6281L72.6656 76.7625L60.5906 64.6875L70.725 54.3375L59.7281 43.5563L43.5563 59.9438L76.9781 93.3656ZM147.056 163.444L163.444 147.056L152.447 136.275L142.312 146.409L130.022 134.334L140.372 123.984L129.806 113.634L113.419 130.022L147.056 163.444ZM43.125 163.875H55.2L138.216 81.075L125.925 68.7844L43.125 151.8V163.875ZM150.291 68.7844L162.581 56.4938L150.291 44.4188L138.216 56.4938L150.291 68.7844Z" fill="#FFD233" fill-opacity="0.5"/>
</svg>
