<svg id="visual" viewBox="0 0 900 600" width="900" height="600" xmlns="http://www.w3.org/2000/svg" xmlns:xlink="http://www.w3.org/1999/xlink" version="1.1"><path d="M0 288L21.5 274C43 260 86 232 128.8 215.5C171.7 199 214.3 194 257.2 211.7C300 229.3 343 269.7 385.8 300.2C428.7 330.7 471.3 351.3 514.2 346.7C557 342 600 312 642.8 294.5C685.7 277 728.3 272 771.2 259.5C814 247 857 227 878.5 217L900 207L900 0L878.5 0C857 0 814 0 771.2 0C728.3 0 685.7 0 642.8 0C600 0 557 0 514.2 0C471.3 0 428.7 0 385.8 0C343 0 300 0 257.2 0C214.3 0 171.7 0 128.8 0C86 0 43 0 21.5 0L0 0Z" fill="#E22C2C" stroke-linecap="round" stroke-linejoin="miter"></path></svg>